#!OML:ASF I:\golf\golf\golf 2\Subject 1\2002-09-07\Subject1.ASF
:FULLY-SPECIFIED
:DEGREES
443
root 0.668937 17.9253 -5.50991 25.3261 19.6209 1.51119
lowerback 24.0274 2.00936 4.15721
upperback 8.59991 4.14894 7.9608
thorax -4.19626 2.02064 5.17986
lowerneck -22.1712 -7.39211 -2.71622
upperneck 21.9674 -8.92329 -1.41261
head 10.7866 -4.42845 -1.44805
rclavicle 2.22639e-014 -1.59028e-015
rhumerus 0.624946 11.3137 -59.8088
rradius 38.5928
rwrist -17.6213
rhand -21.655 10.5156
rfingers 7.12502
rthumb 4.74188 -19.4113
lclavicle 2.22639e-014 -1.59028e-015
lhumerus -35.1141 -29.2534 104.752
lradius 62.9063
lwrist 4.64775
lhand -25.0889 31.394
lfingers 7.12502
lthumb 1.4257 61.369
rfemur -53.8543 -6.79486 19.0767
rtibia 33.5419
rfoot 2.55039 7.0067
rtoes 5.69303
lfemur -28.1003 -3.85692 -19.4186
ltibia 27.3446
lfoot -16.8217 -10.1417
ltoes -1.64879
444
root 0.703384 17.9398 -5.53009 24.1374 19.6398 1.49906
lowerback 24.0232 1.76494 3.9043
upperback 8.46355 3.78936 7.87164
thorax -4.33069 1.84627 5.32403
lowerneck -22.173 -7.23017 -2.70518
upperneck 22.6353 -8.71956 -1.37344
head 11.0362 -4.32069 -1.42496
rclavicle -5.88403e-014 -8.26944e-014
rhumerus -0.381415 11.1964 -60.5497
rradius 39.3495
rwrist -17.7523
rhand -21.8682 10.8047
rfingers 7.12502
rthumb 4.53607 -19.1267
lclavicle -5.88403e-014 -8.26944e-014
lhumerus -35.1107 -28.6803 104.463
lradius 62.2166
lwrist 4.92881
lhand -24.6967 31.0961
lfingers 7.12502
lthumb 1.80452 61.0683
rfemur -52.3453 -6.70255 18.7191
rtibia 33.3017
rfoot 2.57803 6.78896
rtoes 5.91793
lfemur -26.7795 -3.70316 -19.6421
ltibia 27.3609
lfoot -16.9804 -10.3822
ltoes -1.20876
445
root 0.743057 17.9406 -5.56755 23.4562 19.3535 1.27218
lowerback 23.4388 1.68784 3.72375
upperback 8.24033 3.61284 7.78321
thorax -4.27774 1.76168 5.38365
lowerneck -22.2315 -7.08175 -2.67374
upperneck 23.3085 -8.51296 -1.4338
head 11.2948 -4.22291 -1.44197
rclavicle -4.77083e-015 1.59028e-014
rhumerus -1.33479 10.9535 -61.1796
rradius 40.0813
rwrist -17.7884
rhand -22.0781 11.0907
rfingers 7.12502
rthumb 4.33336 -18.845
lclavicle -4.77083e-015 1.59028e-014
lhumerus -35.0629 -28.146 104.259
lradius 61.4289
lwrist 4.97698
lhand -23.9527 31.0086
lfingers 7.12502
lthumb 2.52307 60.9735
rfemur -51.6167 -6.46555 18.628
rtibia 33.0193
rfoot 2.70491 6.72991
rtoes 6.26925
lfemur -26.1568 -3.49532 -19.7167
ltibia 27.374
lfoot -16.9613 -10.419
ltoes -0.929548
446
root 0.785045 17.9387 -5.6145 22.8357 18.8255 0.927373
lowerback 22.8312 1.66538 3.62566
upperback 8.02752 3.51483 7.63028
thorax -4.1954 1.7149 5.30223
lowerneck -22.2943 -6.94018 -2.65727
upperneck 23.9019 -8.32851 -1.42678
head 11.5311 -4.12933 -1.43329
rclavicle 8.42847e-014 -6.36111e-015
rhumerus -2.29011 10.5926 -61.9189
rradius 40.9275
rwrist -17.7761
rhand -22.2412 11.2711
rfingers 7.12502
rthumb 4.17586 -18.6678
lclavicle 8.42847e-014 -6.36111e-015
lhumerus -34.9322 -27.5895 103.927
lradius 60.6619
lwrist 4.99785
lhand -23.2424 30.8816
lfingers 7.12502
lthumb 3.20899 60.8372
rfemur -51.0937 -6.2559 18.7495
rtibia 32.7011
rfoot 2.953 6.98388
rtoes 6.96421
lfemur -25.6096 -3.11457 -19.7749
ltibia 27.2837
lfoot -16.8731 -10.3191
ltoes -1.40566
447
root 0.823599 17.9485 -5.6557 22.199 18.3858 0.683831
lowerback 22.2195 1.59196 3.45046
upperback 7.843 3.33594 7.47645
thorax -4.0764 1.62868 5.28541
lowerneck -22.285 -6.8144 -2.70681
upperneck 24.4499 -8.17582 -1.31155
head 11.7475 -4.04296 -1.37511
rclavicle -2.70347e-014 -6.36111e-015
rhumerus -3.29486 10.1605 -62.7175
rradius 41.9214
rwrist -17.7383
rhand -22.3283 11.4358
rfingers 7.12502
rthumb 4.09175 -18.5047
lclavicle -2.70347e-014 -6.36111e-015
lhumerus -34.7213 -26.8691 103.464
lradius 59.7996
lwrist 4.759
lhand -23.0676 29.9654
lfingers 7.12502
lthumb 3.37783 59.9184
rfemur -50.5096 -6.50112 19.0603
rtibia 32.3544
rfoot 3.4154 7.63172
rtoes 7.92334
lfemur -25.0357 -2.74956 -19.8835
ltibia 27.2885
lfoot -17.0007 -10.2811
ltoes -2.05632
448
root 0.860739 17.9582 -5.69396 21.5291 18.0226 0.489983
lowerback 21.6673 1.51283 3.25862
upperback 7.66544 3.15565 7.35347
thorax -3.98012 1.54137 5.31069
lowerneck -22.3213 -6.71622 -2.76069
upperneck 25.1035 -8.04293 -1.25698
head 12.013 -3.97218 -1.34573
rclavicle -2.54444e-014 -7.95139e-014
rhumerus -4.20133 9.78207 -63.3477
rradius 42.8706
rwrist -17.9171
rhand -22.4766 11.5721
rfingers 7.12502
rthumb 3.94855 -18.371
lclavicle -2.54444e-014 -7.95139e-014
lhumerus -34.4537 -26.09 102.993
lradius 58.9051
lwrist 3.84164
lhand -22.4311 29.7993
lfingers 7.12502
lthumb 3.99252 59.7416
rfemur -49.8609 -6.81169 19.338
rtibia 32.0433
rfoot 3.91366 8.22025
rtoes 8.83058
lfemur -24.3969 -2.52103 -19.9856
ltibia 27.2795
lfoot -17.2456 -10.1092
ltoes -2.94577
449
root 0.898432 17.9586 -5.73145 20.8976 17.6728 0.300951
lowerback 21.1516 1.43969 3.11829
upperback 7.43129 3.00191 7.23078
thorax -3.9611 1.46713 5.29788
lowerneck -22.1798 -6.60127 -2.66231
upperneck 25.5508 -7.87211 -1.44562
head 12.1456 -3.90813 -1.41045
rclavicle 2.22639e-014 -1.43125e-014
rhumerus -5.09191 9.47402 -63.8675
rradius 43.7441
rwrist -18.2961
rhand -22.7048 11.5915
rfingers 7.12502
rthumb 3.72818 -18.3556
lclavicle 2.22639e-014 -1.43125e-014
lhumerus -34.308 -25.3907 102.586
lradius 58.0357
lwrist 2.84961
lhand -21.6275 29.7262
lfingers 7.12502
lthumb 4.7685 59.6525
rfemur -49.2306 -6.74807 19.3646
rtibia 31.7912
rfoot 4.20489 8.38675
rtoes 8.98735
lfemur -23.7729 -2.32351 -20.0813
ltibia 27.2183
lfoot -17.3183 -9.90134
ltoes -3.72267
450
root 0.937276 17.9533 -5.76566 20.3229 17.2604 0.121519
lowerback 20.5193 1.3688 2.91025
upperback 7.22927 2.82995 7.13132
thorax -3.8481 1.38334 5.35436
lowerneck -21.9254 -6.42342 -2.44494
upperneck 25.7265 -7.60163 -1.81276
head 12.1361 -3.81822 -1.53151
rclavicle -3.97569e-014 -6.20208e-014
rhumerus -5.9111 9.33324 -64.2728
rradius 44.621
rwrist -18.7654
rhand -22.786 11.6252
rfingers 7.12502
rthumb 3.64979 -18.3233
lclavicle -3.97569e-014 -6.20208e-014
lhumerus -34.1622 -24.6295 102.205
lradius 56.987
lwrist 2.41814
lhand -21.6215 28.1009
lfingers 7.12502
lthumb 4.77422 58.0271
rfemur -48.6954 -6.46905 19.2708
rtibia 31.608
rfoot 4.40648 8.42996
rtoes 8.63046
lfemur -23.2164 -2.07977 -20.2008
ltibia 27.2174
lfoot -17.2331 -9.76116
ltoes -3.53603
451
root 0.973408 17.9508 -5.79856 19.7214 16.893 -0.121032
lowerback 19.8124 1.27874 2.76989
upperback 7.12119 2.63834 7.05742
thorax -3.58855 1.28961 5.40414
lowerneck -21.8825 -6.27431 -2.40745
upperneck 26.0318 -7.36957 -1.94968
head 12.2401 -3.72834 -1.55792
rclavicle 3.02153e-014 1.25632e-013
rhumerus -6.56582 9.15675 -64.631
rradius 45.4894
rwrist -19.1596
rhand -22.6646 11.6255
rfingers 7.12502
rthumb 3.767 -18.3209
lclavicle 3.02153e-014 1.25632e-013
lhumerus -33.8689 -23.9154 101.797
lradius 56.0249
lwrist 1.77414
lhand -21.6348 27.4085
lfingers 7.12502
lthumb 4.76141 57.335
rfemur -48.1684 -6.15012 19.2338
rtibia 31.4614
rfoot 4.58839 8.35264
rtoes 8.64628
lfemur -22.7005 -1.92504 -20.2073
ltibia 27.3139
lfoot -17.2248 -9.65714
ltoes -2.58853
452
root 1.00682 17.9509 -5.83206 19.1267 16.5455 -0.385282
lowerback 19.2184 1.17932 2.66933
upperback 6.94236 2.4555 6.9719
thorax -3.45982 1.2003 5.41284
lowerneck -21.7663 -6.1295 -2.51848
upperneck 26.4199 -7.14866 -1.89945
head 12.3791 -3.63211 -1.4924
rclavicle 6.36111e-014 2.70347e-014
rhumerus -7.28663 8.98227 -65.0738
rradius 46.3453
rwrist -19.3627
rhand -22.5917 11.3969
rfingers 7.12502
rthumb 3.83736 -18.5483
lclavicle 6.36111e-014 2.70347e-014
lhumerus -33.6385 -23.1086 101.347
lradius 55.0181
lwrist 0.551258
lhand -21.5548 26.98
lfingers 7.12502
lthumb 4.83869 56.9047
rfemur -47.6544 -6.01647 19.3475
rtibia 31.284
rfoot 4.80184 8.40735
rtoes 8.8034
lfemur -22.23 -1.77249 -20.1664
ltibia 27.4771
lfoot -17.4097 -9.52044
ltoes -2.59644
